<svg width="25" height="19" viewBox="0 0 25 19" fill="none" xmlns="http://www.w3.org/2000/svg">
<path id="Vector" d="M11.5974 18.4937C11.2759 18.8179 10.84 19 10.3854 19C9.93081 19 9.49484 18.8179 9.17336 18.4937L1.45896 10.7121C1.13757 10.3878 0.95703 9.94809 0.95703 9.48956C0.95703 9.03103 1.13757 8.59127 1.45896 8.26699L9.17336 0.485419C9.49669 0.170424 9.92972 -0.00387323 10.3792 6.54828e-05C10.8287 0.0040061 11.2587 0.185868 11.5765 0.506482C11.8944 0.827098 12.0747 1.26081 12.0786 1.71421C12.0825 2.16761 11.9097 2.60442 11.5974 2.93056L6.95676 7.76032L23.2427 7.76032C23.6974 7.76032 24.1334 7.94251 24.4549 8.26681C24.7764 8.5911 24.957 9.03094 24.957 9.48956C24.957 9.94818 24.7764 10.388 24.4549 10.7123C24.1334 11.0366 23.6974 11.2188 23.2427 11.2188L6.95676 11.2188L11.5974 16.0486C11.9188 16.3728 12.0993 16.8126 12.0993 17.2711C12.0993 17.7297 11.9188 18.1694 11.5974 18.4937Z" fill="#FFEFDC"/>
</svg>
